<svg xmlns="http://www.w3.org/2000/svg" id="coding" viewBox="0 0 64.19 64.61">
  <g id="ICONS">
    <path d="M60.62 14.78v39.53H3.75V14.78c0-1.65 1.34-2.99 2.99-2.99h50.91c1.65 0 2.99 1.34 2.99 2.99Z" style="fill:#ffe04a"></path>
    <path d="M50.36 11.55c1.99.02 3.74.03 5.24.05l2.06.03c.66.02 1.24.23 1.67.52.87.6 1.18 1.39 1.28 1.88.05.25.06.44.05.57 0 .13-.02.19-.03.19-.04 0-.03-.25-.17-.72-.14-.45-.47-1.17-1.29-1.67-.4-.25-.93-.42-1.52-.42-.62 0-1.31.02-2.06.03-1.5.01-3.24.03-5.24.05a49132 49132 0 0 0-43.89.23c-.79.08-1.52.56-1.92 1.26-.2.34-.31.74-.32 1.14v1.41c0 3.83.02 7.75.03 11.75 0 7.99.02 16.28.03 24.78v1.17c20.85.05 40.27.1 55.94.14.06-10.78.11-19.55.15-27.16.1-15.96.4-15.96.5 0 .04 7.83.09 16.86.15 27.95-16.19.04-36.27.09-57.81.14v-2.24c0-8.5.02-16.79.03-24.78 0-3.99.02-7.91.03-11.75v-1.45c.04-.55.19-1.1.47-1.57.54-.96 1.56-1.61 2.64-1.71 1.97-.03 3.75 0 5.59 0 14.6.07 27.63.14 38.39.2Z" style="fill:#231f20"></path>
    <path d="M56.63 17.79v30.53a2 2 0 0 1-2 2H9.74a2 2 0 0 1-2-2V17.79c0-1.11.89-2 2-2h44.89c.48 0 .92.17 1.28.45.44.37.72.93.72 1.55" style="fill:#fff"></path>
    <path d="M47.8 15.54c1.66.02 3.11.03 4.36.05l1.71.03c.5.02 1-.03 1.44.14.86.31 1.19 1 1.29 1.39.1.42.04.64.03.64-.03 0-.03-.21-.17-.59-.14-.36-.47-.94-1.24-1.17-.36-.13-.82-.07-1.35-.07-.52 0-1.09.02-1.71.03-1.25.01-2.7.03-4.36.05-8.96.05-19.81.12-31.97.2-1.52 0-3.06.01-4.62.02h-1.17c-.44 0-.65.02-.95.15-.55.26-.91.83-.87 1.49 0 3.19.02 6.46.03 9.78 0 6.65.02 13.55.03 20.63 0 .65.47 1.27 1.1 1.42.26.08.74.03 1.18.05h6.51a10088.527 10088.527 0 0 1 29.29.09c1.52 0 3.02.01 4.5.02.74 0 1.47 0 2.2.01h1.62c.14 0 .29-.03.42-.06.55-.16.99-.64 1.1-1.2.05-.25.03-.62.04-.97v-1.04l.03-4.09c.04-5.35.07-10.31.1-14.78.1-13.29.4-13.29.5 0 .03 4.48.07 9.43.1 14.78 0 1.34.02 2.7.02 4.09v1.04c0 .35.04.69-.04 1.13-.16.83-.8 1.56-1.63 1.81-.21.06-.42.1-.64.11h-.55l-1.09.01c-.73 0-1.46 0-2.2.01-1.48 0-2.98.01-4.5.02-6.08.02-12.48.04-19.13.07-3.33 0-6.71.01-10.16.02H9.88c-.19 0-.53 0-.78-.08-1.1-.25-1.93-1.33-1.91-2.46 0-7.08.02-13.98.03-20.63 0-3.33.02-6.59.03-9.78-.06-.94.53-1.97 1.43-2.35.42-.22 1.01-.24 1.35-.23h1.17c1.56.01 3.1.02 4.62.02 12.16.07 23.01.14 31.97.2Z" style="fill:#231f20"></path>
    <path d="M63.84 55.67v.16c0 4.56-3.7 8.26-8.26 8.26H8.8c-4.56 0-8.26-3.7-8.26-8.26v-.16c0-.75.61-1.36 1.36-1.36h60.58c.75 0 1.36.61 1.36 1.36" style="fill:#ffe04a"></path>
    <path d="M56.2 54.06c2.81.03 4.9.06 6.31.11.8.06 1.19.63 1.29.96.11.36.05.54.03.54-.03 0-.03-.18-.17-.49-.13-.28-.51-.73-1.16-.73-1.39.04-3.5.08-6.31.11-7.56.05-16.72.12-26.98.2-5.13.02-10.53.04-16.15.07-2.81 0-5.67.01-8.57.02H1.8c-.11.01-.22.04-.32.1-.2.11-.35.3-.4.51-.06.16-.01.61 0 .93 0 .35.09.69.14 1.03.16.67.37 1.34.7 1.96 1.28 2.5 3.94 4.15 6.68 4.18 2.9 0 5.76.02 8.56.03 5.61.02 11.02.04 16.15.07s9.98.06 14.5.09c2.26.02 4.43.03 6.52.05 1.05 0 2.04.04 2.98-.17.94-.19 1.82-.56 2.59-1.06a8.26 8.26 0 0 0 3.56-4.84c.18-.67.25-1.18.28-1.53.05-.35.07-.52.09-.52.03 0 .05.17.06.53.01.35 0 .89-.15 1.59-.13.7-.43 1.56-.97 2.49-.55.92-1.37 1.92-2.59 2.71-.81.54-1.74.95-2.74 1.18-1.01.24-2.07.23-3.1.23-2.08.02-4.26.03-6.52.05-4.52.03-9.37.06-14.5.09-5.13.02-10.53.04-16.15.07H8.59c-3.11-.02-6.15-1.9-7.6-4.75-.37-.7-.62-1.46-.8-2.23-.05-.39-.15-.78-.15-1.17 0-.42-.09-.72.04-1.28.13-.5.47-.93.92-1.18.22-.12.47-.2.73-.22.28-.02.39 0 .6 0h2.19a7193.423 7193.423 0 0 1 24.72.09c10.26.07 19.42.14 26.98.2Z" style="fill:#231f20"></path>
    <path d="M46.56 58.94c0 .9-.72 1.62-1.62 1.62s-1.63-.72-1.63-1.62.73-1.63 1.63-1.63 1.62.73 1.62 1.63" style="fill:#fff"></path>
    <path d="M46.67 58.24c.12.47-.03.71-.12.7-.11 0-.17-.21-.35-.51-.23-.42-.76-.75-1.32-.66-.55.06-1.05.57-1.04 1.17-.01.6.48 1.11 1.04 1.17.56.09 1.09-.24 1.32-.65.17-.31.24-.51.35-.51.09 0 .24.22.11.7-.15.62-.83 1.36-1.83 1.36-.48.01-1.01-.17-1.41-.54s-.67-.94-.66-1.52c-.02-1.22 1.1-2.13 2.08-2.06 1 0 1.67.76 1.82 1.37Z" style="fill:#231f20"></path>
    <path d="M51.97 58.94c0 .9-.72 1.62-1.62 1.62s-1.63-.72-1.63-1.62.73-1.63 1.63-1.63 1.62.73 1.62 1.63" style="fill:#fff"></path>
    <path d="M52.09 58.24c.12.47-.03.71-.12.7-.11 0-.17-.21-.35-.51-.23-.42-.76-.75-1.32-.66-.55.06-1.05.57-1.04 1.17-.01.6.48 1.11 1.04 1.17.56.09 1.09-.24 1.32-.65.17-.31.24-.51.35-.51.09 0 .24.22.11.7-.15.62-.83 1.36-1.83 1.36-.48.01-1.01-.17-1.41-.54s-.67-.94-.66-1.52c-.02-1.22 1.1-2.13 2.08-2.06 1 0 1.67.76 1.82 1.37Z" style="fill:#231f20"></path>
    <rect width="14.61" height="2.76" x="20.2" y="57.56" rx="1.38" ry="1.38" style="fill:#fff"></rect>
    <path d="M33.66 57.32c.79.15 1.13.74 1.2 1.08.08.36 0 .54-.04.53-.06 0-.08-.17-.22-.43-.13-.25-.45-.63-1-.68-1.76.05-3.9.11-6.3.18-1.2.02-2.47.04-3.79.07-.65 0-1.31.01-1.98.02-.42.02-.8.41-.79.84 0 .44.36.82.79.84a391.919 391.919 0 0 1 5.77.09c2.39.07 4.53.13 6.3.18.55-.05.87-.43 1-.68.14-.26.16-.43.22-.43.04 0 .13.17.04.53-.07.34-.41.93-1.2 1.08-1.84.1-3.94.15-6.36.21-1.2.02-2.47.04-3.79.07-.67 0-1.35 0-2.05.01-.96-.03-1.81-.91-1.79-1.9-.02-.99.83-1.87 1.79-1.9.69 0 1.38 0 2.05.01 1.32.02 2.59.04 3.79.07 2.42.06 4.52.11 6.36.21" style="fill:#231f20"></path>
    <path d="M51 4.11C51 2.13 49.4.53 47.42.53H16.97c-1.98 0-3.58 1.6-3.58 3.58v3.34h37.62V4.11Z" style="fill:#59ddfc"></path>
    <path d="M49.09 7.2c.63.01 1.2.03 1.69.04.11-3.93.32-4.54.43.43-.61.01-1.32.02-2.12.04-4.48.05-9.87.12-15.91.19-6.2.03-13.07.06-20.34.1V4.01c.02-.53.14-1.06.35-1.54.42-.97 1.23-1.75 2.19-2.15.48-.2 1-.3 1.51-.31h1.35c.89 0 1.77 0 2.65.01 3.5.02 6.87.04 10.07.07 6.41.06 12.09.1 16.85.22.93.12 1.68.55 2.16 1.04.5.48.76 1.02.91 1.44.15.43.16.78.16 1q-.015.33-.06.33c-.07 0-.04-.45-.37-1.23-.17-.38-.44-.84-.92-1.25A3.44 3.44 0 0 0 47.75.8c-4.71.05-10.41.11-16.8.18-3.2.02-6.57.04-10.07.07-.88 0-1.76 0-2.65.01H16.9c-.38 0-.77.08-1.12.23-.71.3-1.31.88-1.62 1.6-.16.36-.24.75-.25 1.14v2.89c6.89.04 13.39.07 19.27.1 6.04.07 11.43.13 15.91.19Z" style="fill:#231f20"></path>
    <path d="M13.38 7.45H51v42.87H13.38z" style="fill:#fff"></path>
    <path d="M23.2 7.7c-13.09-.1-13.09-.4 0-.5l28.22-.18c.03 12.85.07 27.9.11 43.83-13.74-.03-26.83-.06-38.61-.08.08-12.85.15-24.2.2-33.5.1-13.09.4-13.09.5 0 .06 9.05.12 20.09.2 32.6 11.17-.03 23.59-.05 36.63-.08.04-15.23.08-29.62.11-41.91L23.19 7.7Z" style="fill:#231f20"></path>
    <path d="M28.24 21.31c0 .18 0 .32-.02.42s-.04.17-.07.22-.07.06-.12.06-.11-.02-.18-.06l-5.57-2.77q-.105-.06-.15-.24c-.045-.18-.05-.31-.05-.56 0-.13 0-.24.01-.33s.02-.17.04-.23.04-.11.06-.15.06-.06.09-.08l5.56-2.76c.14-.07.24-.05.3.04s.09.29.09.58c0 .2 0 .36-.01.47s-.02.21-.04.28-.05.12-.08.15-.08.06-.14.09l-4.18 1.96 4.1 1.9c.07.03.13.07.18.1s.08.09.11.16.04.16.05.28.01.28.01.48ZM30.83 24.45c-.02.06-.06.11-.09.15s-.09.07-.16.09-.16.04-.26.05-.24.02-.4.02c-.2 0-.36 0-.49-.03s-.22-.05-.29-.09-.1-.09-.11-.15 0-.13.03-.21L33.4 12.1c.02-.06.05-.11.09-.16s.09-.07.16-.1.16-.04.26-.05.24-.02.4-.02c.2 0 .37 0 .49.03s.22.05.28.09.1.09.11.15 0 .13-.02.21l-4.33 12.19ZM42.28 18.4c0 .13 0 .23-.01.33s-.02.17-.04.23-.04.11-.07.15-.06.06-.09.08l-5.57 2.76c-.07.03-.13.05-.17.04s-.09-.03-.12-.08-.05-.12-.07-.21-.02-.21-.02-.36c0-.2 0-.36.01-.47s.02-.21.04-.28.05-.12.08-.15.08-.06.14-.08l4.18-1.96-4.1-1.9c-.08-.03-.14-.07-.19-.1s-.08-.09-.11-.16-.04-.16-.05-.28-.01-.28-.01-.48c0-.18 0-.32.02-.42s.03-.17.07-.22.07-.06.12-.06.11.02.17.06l5.57 2.78c.06.03.11.11.15.23s.05.31.05.56ZM27.28 30.6c-1.73-.1-1.73-.4 0-.5 2.33-.14 5.65-.29 9.33-.29s7 .15 9.33.29c1.73.1 1.73.4 0 .5-2.33.14-5.65.29-9.33.29s-7-.15-9.33-.29M39.7 35.26c-.65-.1-.65-.4 0-.5.88-.14 2.14-.29 3.53-.29s2.65.15 3.53.29c.65.1.65.4 0 .5-.88.14-2.14.29-3.53.29s-2.65-.15-3.53-.29M18.33 35.26c-1.6-.1-1.6-.4 0-.5 2.15-.14 5.21-.29 8.61-.29s6.46.15 8.61.29c1.6.1 1.6.4 0 .5-2.15.14-5.21.29-8.61.29s-6.46-.15-8.61-.29M29.17 39.92c-1.57-.1-1.57-.4 0-.5 2.11-.14 5.11-.29 8.45-.29s6.34.15 8.45.29c1.57.1 1.57.4 0 .5-2.11.14-5.11.29-8.45.29s-6.34-.15-8.45-.29M39.9 44.58c-.64-.1-.64-.4 0-.5.86-.14 2.08-.29 3.43-.29s2.57.15 3.43.29c.64.1.64.4 0 .5-.86.14-2.08.29-3.43.29s-2.57-.15-3.43-.29M18.36 44.58c-1.63-.1-1.63-.4 0-.5 2.2-.14 5.34-.29 8.82-.29s6.62.15 8.82.29c1.63.1 1.63.4 0 .5-2.2.14-5.34.29-8.82.29s-6.62-.15-8.82-.29" style="fill:#231f20"></path>
    <path d="M19.94 4.31c0 .68-.54 1.22-1.2 1.22s-1.22-.54-1.22-1.22.54-1.2 1.22-1.2 1.2.54 1.2 1.2" style="fill:#fff"></path>
    <path d="M20.09 3.77c.09.38-.05.55-.14.55-.11 0-.18-.15-.32-.36-.18-.28-.56-.48-.93-.4-.37.06-.65.39-.64.76 0 .38.28.7.65.76.36.08.74-.12.92-.41.14-.21.21-.36.32-.36.09 0 .23.17.15.55-.1.48-.62 1.1-1.42 1.12-.38.02-.81-.12-1.14-.42-.33-.29-.55-.75-.55-1.22 0-.48.2-.94.53-1.24s.75-.44 1.14-.43c.8 0 1.33.61 1.43 1.1" style="fill:#231f20"></path>
    <path d="M24.28 4.31c0 .68-.54 1.22-1.2 1.22s-1.22-.54-1.22-1.22.54-1.2 1.22-1.2 1.2.54 1.2 1.2" style="fill:#fff"></path>
    <path d="M24.43 3.77c.09.38-.05.55-.14.55-.11 0-.18-.15-.32-.36-.18-.28-.56-.48-.93-.4-.37.06-.65.39-.64.76 0 .38.28.7.65.76.36.08.74-.12.92-.41.14-.21.21-.36.32-.36.09 0 .23.17.15.55-.1.48-.62 1.1-1.42 1.12-.38.02-.81-.12-1.14-.42-.33-.29-.55-.75-.55-1.22 0-.48.2-.94.53-1.24s.75-.44 1.14-.43c.8 0 1.33.61 1.43 1.1" style="fill:#231f20"></path>
    <path d="M28.63 4.31c0 .68-.54 1.22-1.2 1.22s-1.22-.54-1.22-1.22.54-1.2 1.22-1.2 1.2.54 1.2 1.2" style="fill:#fff"></path>
    <path d="M28.77 3.77c.09.38-.05.55-.14.55-.11 0-.18-.15-.32-.36-.18-.28-.56-.48-.93-.4-.37.06-.65.39-.64.76 0 .38.28.7.65.76.36.08.74-.12.92-.41.14-.21.21-.36.32-.36.09 0 .23.17.15.55-.1.48-.62 1.1-1.42 1.12-.38.02-.81-.12-1.14-.42-.33-.29-.55-.75-.55-1.22 0-.48.2-.94.53-1.24s.75-.44 1.14-.43c.8 0 1.33.61 1.43 1.1" style="fill:#231f20"></path>
  </g>
</svg>
