<svg width="40" height="40" viewBox="0 0 40 40" fill="none" xmlns="http://www.w3.org/2000/svg">
<path d="M19.2363 38.3013C29.2465 38.3013 37.3613 30.1864 37.3613 20.1763C37.3613 10.1661 29.2465 2.05127 19.2363 2.05127C9.22617 2.05127 1.11133 10.1661 1.11133 20.1763C1.11133 30.1864 9.22617 38.3013 19.2363 38.3013Z" fill="#F20519"/>
<path d="M20 33.75C27.5939 33.75 33.75 27.5939 33.75 20C33.75 12.4061 27.5939 6.25 20 6.25C12.4061 6.25 6.25 12.4061 6.25 20C6.25 27.5939 12.4061 33.75 20 33.75Z" fill="#D8B1A2"/>
<path d="M28.6619 23.5883C30.6433 18.8047 28.3717 13.3207 23.5881 11.3393C18.8046 9.35785 13.3205 11.6294 11.3391 16.413C9.35771 21.1965 11.6293 26.6806 16.4128 28.662C21.1964 30.6434 26.6805 28.3718 28.6619 23.5883Z" fill="#F20519"/>
<path d="M20 25C22.7614 25 25 22.7614 25 20C25 17.2386 22.7614 15 20 15C17.2386 15 15 17.2386 15 20C15 22.7614 17.2386 25 20 25Z" fill="#D8B1A2"/>
<path d="M38.1123 8.63747C38.0686 8.39372 37.8873 8.20622 37.6498 8.14372L33.0123 6.98747L31.8561 2.34997C31.7998 2.11247 31.6061 1.93122 31.3623 1.88747C31.1248 1.84372 30.8748 1.94372 30.7373 2.14372L26.3623 8.39372C26.2686 8.52497 26.2311 8.69372 26.2561 8.85622L26.8811 12.6062C26.8811 12.6062 26.8936 12.6375 26.8936 12.65C26.8936 12.6625 26.8936 12.6812 26.8998 12.6937C26.8998 12.7062 26.9123 12.7187 26.9186 12.7312C26.9311 12.7562 26.9436 12.7812 26.9561 12.8062C26.9686 12.8312 26.9873 12.8562 26.9998 12.875C27.0186 12.9 27.0373 12.9187 27.0561 12.9375C27.0748 12.9562 27.0998 12.975 27.1186 12.9937C27.1436 13.0125 27.1623 13.025 27.1873 13.0375C27.2123 13.05 27.2373 13.0625 27.2623 13.075C27.2748 13.075 27.2873 13.0875 27.2998 13.0937C27.3123 13.0937 27.3248 13.0937 27.3373 13.1C27.3561 13.1 27.3686 13.1125 27.3873 13.1125L31.1373 13.7375C31.1686 13.7375 31.2061 13.7437 31.2373 13.7437C31.3623 13.7437 31.4873 13.7062 31.5936 13.6312L37.8436 9.25622C38.0436 9.11872 38.1436 8.86872 38.0998 8.63122L38.1123 8.63747Z" fill="#6D86A5"/>
<path d="M20.0001 20.625C19.8376 20.625 19.6813 20.5625 19.5563 20.4437C19.3126 20.2 19.3126 19.8062 19.5563 19.5625L33.3063 5.81245C33.5501 5.5687 33.9438 5.5687 34.1876 5.81245C34.4313 6.0562 34.4313 6.44995 34.1876 6.6937L20.4376 20.4437C20.3126 20.5687 20.1563 20.625 19.9938 20.625H20.0001Z" fill="#171E26"/>
</svg>
