<svg width="39" height="35" viewBox="0 0 39 35" fill="none" xmlns="http://www.w3.org/2000/svg">
<path d="M34.5 16.218H25.5C25.1022 16.218 24.7206 16.3499 24.4393 16.5847C24.158 16.8195 24 17.138 24 17.4701V33.748C24 34.0801 24.158 34.3986 24.4393 34.6334C24.7206 34.8682 25.1022 35.0001 25.5 35.0001H34.5C35.6935 35.0001 36.8381 34.6044 37.682 33.8999C38.5259 33.1954 39 32.24 39 31.2437V19.9744C39 18.9781 38.5259 18.0227 37.682 17.3182C36.8381 16.6137 35.6935 16.218 34.5 16.218Z" fill="#FFC107"/>
<path d="M13.5 21.2265H4.5C3.30653 21.2265 2.16193 21.6223 1.31802 22.3268C0.474106 23.0312 0 23.9867 0 24.983V31.2437C0 32.24 0.474106 33.1954 1.31802 33.8999C2.16193 34.6044 3.30653 35.0001 4.5 35.0001H13.5C13.8978 35.0001 14.2794 34.8682 14.5607 34.6334C14.842 34.3985 15 34.0801 15 33.748V22.4787C15 22.1466 14.842 21.8281 14.5607 21.5933C14.2794 21.3585 13.8978 21.2265 13.5 21.2265Z" fill="#F44336"/>
<path d="M22.5 11.2094H16.5C15.3065 11.2094 14.1619 11.6051 13.318 12.3096C12.4741 13.0141 12 13.9695 12 14.9658V33.748C12 34.0801 12.158 34.3986 12.4393 34.6334C12.7206 34.8682 13.1022 35.0001 13.5 35.0001H25.5C25.8978 35.0001 26.2794 34.8682 26.5607 34.6334C26.842 34.3986 27 34.0801 27 33.748V14.9658C27 13.9695 26.5259 13.0141 25.682 12.3096C24.8381 11.6051 23.6935 11.2094 22.5 11.2094Z" fill="#4CAF50"/>
<path d="M34.5 16.2178H27V14.9657C27 13.9694 26.5259 13.014 25.682 12.3095C24.8381 11.605 23.6935 11.2093 22.5 11.2093H16.5C15.3065 11.2093 14.1619 11.605 13.318 12.3095C12.4741 13.014 12 13.9694 12 14.9657V21.2264H4.5C3.30653 21.2264 2.16193 21.6222 1.31802 22.3266C0.474106 23.0311 0 23.9866 0 24.9828V31.2436C0 32.2398 0.474106 33.1953 1.31802 33.8998C2.16193 34.6042 3.30653 35 4.5 35H34.5C35.6935 35 36.8381 34.6042 37.682 33.8998C38.5259 33.1953 39 32.2398 39 31.2436V19.9743C39 18.978 38.5259 18.0225 37.682 17.3181C36.8381 16.6136 35.6935 16.2178 34.5 16.2178ZM3 31.2436V24.9828C3 24.6508 3.15804 24.3323 3.43934 24.0974C3.72064 23.8626 4.10218 23.7307 4.5 23.7307H12V32.4957H4.5C4.10218 32.4957 3.72064 32.3638 3.43934 32.129C3.15804 31.8941 3 31.5757 3 31.2436ZM15 22.4786V14.9657C15 14.6336 15.158 14.3151 15.4393 14.0803C15.7206 13.8455 16.1022 13.7136 16.5 13.7136H22.5C22.8978 13.7136 23.2794 13.8455 23.5607 14.0803C23.842 14.3151 24 14.6336 24 14.9657V32.4957H15V22.4786ZM36 31.2436C36 31.5757 35.842 31.8941 35.5607 32.129C35.2794 32.3638 34.8978 32.4957 34.5 32.4957H27V18.7221H34.5C34.8978 18.7221 35.2794 18.854 35.5607 19.0889C35.842 19.3237 36 19.6422 36 19.9743V31.2436ZM14.265 3.93431C14.16 3.85457 14.0848 3.75113 14.0487 3.63651C14.0126 3.52189 14.017 3.40098 14.0614 3.28841C14.1058 3.17584 14.1884 3.07641 14.299 3.00216C14.4097 2.9279 14.5437 2.882 14.685 2.86998L17.55 2.51938L18.825 0.353173C18.8864 0.247323 18.9823 0.158053 19.1017 0.095591C19.2211 0.0331287 19.3591 0 19.5 0C19.6409 0 19.7789 0.0331287 19.8983 0.095591C20.0177 0.158053 20.1136 0.247323 20.175 0.353173L21.45 2.51938L24.315 2.86998C24.4563 2.882 24.5903 2.9279 24.701 3.00216C24.8116 3.07641 24.8942 3.17584 24.9386 3.28841C24.983 3.40098 24.9874 3.52189 24.9513 3.63651C24.9152 3.75113 24.84 3.85457 24.735 3.93431L22.665 5.6247L23.16 8.00377C23.1856 8.11996 23.1713 8.23981 23.1187 8.34949C23.0662 8.45917 22.9775 8.5542 22.863 8.6236C22.7485 8.69301 22.6128 8.73395 22.4716 8.7417C22.3304 8.74945 22.1894 8.7237 22.065 8.66741L19.5 7.54048L16.935 8.70497C16.8106 8.76126 16.6696 8.78702 16.5284 8.77927C16.3872 8.77151 16.2515 8.73057 16.137 8.66117C16.0225 8.59177 15.9338 8.49674 15.8813 8.38706C15.8287 8.27737 15.8144 8.15752 15.84 8.04134L16.335 5.66226L14.265 3.93431Z" fill="#212121"/>
</svg>
